<svg xmlns="http://www.w3.org/2000/svg" width="263" height="300"><path d="M.581.869c-.758 1.227.973 10.128 2.838 14.593 1.113 2.662 2.257 3.723 4.498 4.171 2.282.457 3.269 1.4 4.101 3.922C13.733 28.75 16.768 32 19.905 32c2.018 0 3.625 1.076 5.975 4 2.32 2.887 3.966 4 5.917 4 1.89 0 3.542 1.052 5.496 3.5 2.611 3.273 3.167 3.5 8.563 3.5 5.099 0 6.102.347 8.629 2.984 2.513 2.623 3.329 2.909 6.74 2.364 3.328-.532 4.289-.23 6.743 2.121 2.695 2.583 3.085 2.671 6.697 1.525 2.109-.669 5.818-2.3 8.242-3.623C86.891 50.196 91 49.935 91 51.856c0 .397-2.551 2.267-5.669 4.157C79.838 59.342 69.107 62.827 64 62.94c-2.456.055-2.494.179-2.168 7.058L62.164 77H103l.004 4.25c.004 4.99 2.888 10.288 6.494 11.931 1.376.627 2.502 1.518 2.502 1.98 0 .461 8.459.839 18.797.839h18.797l3.939 4.034 3.939 4.034-25.737-.284c-14.155-.156-25.736-.14-25.736.036.003 1.134 6.302 9.18 7.187 9.18.732 0 .877 1.803.443 5.5-.453 3.856-.302 5.5.505 5.5.804 0 .97 1.731.549 5.75l-.603 5.75 16.049-.299c11.191-.208 16.476.056 17.46.873 1.116.926 1.411.832 1.411-.452 0-.892-.338-1.569-.75-1.504-.412.066-3.562.066-7 0L135 134v-21.152l8.002.326c6.896.281 8.002.098 8-1.32-.001-.906 1.631-3.08 3.626-4.832l3.628-3.186-4.168-4.246-4.168-4.247 4.67-4.67c4.452-4.452 4.647-4.88 4.163-9.172L158.246 77H201V63.32l-7.164-1.28c-7.18-1.283-20.829-7.425-21.568-9.705-.766-2.361 3.469-2.342 7.825.036 2.424 1.323 6.177 2.968 8.34 3.655 3.762 1.196 4.036 1.13 6.312-1.516 2.113-2.457 2.856-2.699 6.668-2.177 3.828.525 4.593.27 7.125-2.373 2.501-2.61 3.518-2.96 8.606-2.96 5.396 0 5.952-.227 8.563-3.5 1.954-2.448 3.606-3.5 5.496-3.5 1.951 0 3.597-1.113 5.917-4 2.352-2.927 3.956-4 5.979-4 2.983 0 6.125-3.474 7.996-8.842.732-2.1 1.869-3.101 4.008-3.529 3.404-.68 5.825-5.179 6.663-12.379.272-2.338.886-4.25 1.364-4.25.479 0 .87-.635.87-1.412 0-2.186-2.685-1.279-6.256 2.114-9.063 8.612-25.356 11.389-45.744 7.798-20.55-3.62-32.593-.29-43.969 12.157-4.825 5.278-5.321 5.576-6.314 3.786-2.223-4.005-11.808-13.134-15.976-15.215-7.481-3.737-13.759-4.595-20.666-2.826-3.317.85-7.729 2.623-9.803 3.94-3.995 2.536-13.647 12.282-14.399 14.539-.283.849-2.992-1.203-7.41-5.613C82.073 10.898 71.465 8.207 51.002 11.5c-12.929 2.08-26.647 1.654-34.847-1.082-3.148-1.05-7.33-3.568-10.175-6.126C3.323 1.903.894.363.581.869M.079 2.583c.048 1.165.285 1.402.604.605.289-.722.253-1.585-.079-1.917C.272.939.036 1.529.079 2.583m4.487 7.667c1.983 6.364 1.984 6.365 10.097 8.07 19.382 4.073 28.433 4.587 37.796 2.149 5.95-1.55 9.734-.699 5.898 1.326-6.623 3.497-22.615 3.861-37.107.845-3.437-.716-6.25-.905-6.25-.421 0 .484.672 2.18 1.493 3.768 1.204 2.328 2.382 3.022 6.068 3.574 6.197.93 20.406-.281 31.666-2.698 11.918-2.558 11.986-2.565 12.451-1.255.735 2.067-15.619 5.614-32 6.942-7.773.63-7.81.646-6 2.661 1.693 1.884 2.67 1.99 13.822 1.5 8.647-.38 14.295-1.216 20.211-2.991C70.498 31.383 72 31.287 72 33.124 72 34.909 50.393 40 42.816 40c-3.961 0-4.664.752-2.616 2.8 2.735 2.735 21.178.219 31.341-4.276C76.443 36.357 78 36.237 78 38.03c0 1.167-11.137 5.702-17.302 7.046-5.687 1.241-5.764 1.302-3.912 3.154 1.804 1.805 2.194 1.818 8.744.299 3.77-.874 9.477-2.766 12.683-4.205 3.206-1.439 6.108-2.336 6.45-1.994 1.253 1.253-1.877 3.505-7.944 5.715-7.58 2.761-8.235 3.282-6.23 4.946 1.329 1.103 2.896.65 10.119-2.929 7.508-3.721 8.688-4.047 9.719-2.688 1.787 2.357 9.821 3.819 13.649 2.484 2.92-1.017 3.438-.849 6.499 2.118 3.437 3.331 5.708 3.842 11.275 2.536 2.577-.604 3.25-.447 3.25.759 0 1.943-5.651 6.928-9.804 8.648-1.758.728-3.196 1.719-3.196 2.202 0 .484 8.775.879 19.5.879s19.5-.395 19.5-.879c0-.483-1.438-1.474-3.196-2.202-4.111-1.703-9.804-6.698-9.804-8.602 0-1.157.703-1.309 3.25-.705 5.427 1.287 7.8.732 11.275-2.636 3.061-2.967 3.579-3.135 6.499-2.118 3.828 1.335 11.862-.127 13.649-2.484 1.031-1.359 2.22-1.029 9.784 2.72 7.989 3.958 8.73 4.148 10.255 2.623 1.375-1.375 1.41-1.725.216-2.146-9.122-3.21-12.946-4.888-13.979-6.133-2.255-2.717-.058-2.76 5.838-.114 8.326 3.736 19.003 6.095 20.808 4.597 2.343-1.945 1.636-2.668-3.845-3.932C195.902 43.64 185 39.111 185 38.03c0-1.793 1.557-1.673 6.459.494 10.163 4.495 28.606 7.011 31.341 4.276 2.058-2.058 1.34-2.8-2.712-2.8C210.394 40 191 34.875 191 32.313c0-1.044.554-1.314 1.75-.855 7.876 3.025 17.143 4.779 27.773 5.255 10.382.466 12.209.314 13.392-1.111.754-.908 1.173-1.847.932-2.088-.241-.241-5.418-.908-11.505-1.482-9.874-.931-25.832-4.188-27.194-5.551-.283-.283-.095-.916.419-1.406.55-.526 4.011-.099 8.433 1.039 9.68 2.493 29.155 4.419 35.257 3.488 3.869-.591 5.034-1.265 6.25-3.615.821-1.588 1.493-3.284 1.493-3.768s-2.767-.31-6.149.387c-10.401 2.143-22.883 2.736-29.398 1.395-7.287-1.499-10.035-2.819-8.685-4.169.644-.644 2.813-.44 6.289.592 8.556 2.541 18.826 1.983 38.138-2.073 7.542-1.584 7.725-1.695 9.291-5.608.879-2.196 1.422-4.168 1.208-4.382-.214-.215-2.385.725-4.824 2.088-7.552 4.221-16.582 5.681-39.905 6.451-21.414.706-21.573.728-28.288 3.871-9.821 4.595-15.341 8.904-17.73 13.838-2.41 4.98-1.543 7.952 2.625 8.999 6.032 1.513-2.325 4.88-9.072 3.655-5.011-.91-6.388-2.099-9.444-8.152-3.931-7.788-7.246-11.54-12.395-14.033-5.282-2.557-10.894-2.62-16.161-.182-5.271 2.44-8.699 6.247-12.449 13.826-3.195 6.456-4.501 7.624-9.551 8.541-6.805 1.236-15.089-2.145-9-3.674 5.445-1.366 4.873-8.188-1.179-14.066-4.388-4.261-15.375-9.971-21.821-11.341-2.75-.584-13.55-1.294-24-1.577-20.554-.557-28.867-1.963-36.353-6.146-5.372-3.003-5.452-3.006-4.581-.209M116 80.826c0 .454 1.042 1.804 2.314 3 3.346 3.143 7.926 2.837 11.92-.797l3.266-2.97-8.75-.03c-4.812-.016-8.75.343-8.75.797m19 1.306c0 1.172-1.607 3.647-3.571 5.5L127.858 91h4.12c2.267 0 5.394-.658 6.95-1.463 2.972-1.537 7.284-7.386 6.445-8.743-.27-.437-2.714-.794-5.432-.794-4.376 0-4.941.244-4.941 2.132M98.238 87.32L96.067 91h2.908c3.667 0 4.128-.775 2.633-4.43l-1.198-2.929-2.172 3.679m65.871-.66c-1.45 3.182-.354 4.627 3.16 4.168l2.513-.328-2.234-3.243-2.234-3.242-1.205 2.645M78.5 85.953c-11.759.945-12.927 1.869-21.971 17.37-7.519 12.886-9.66 19.154-9.696 28.382-.074 18.84 13.465 37.016 36.394 48.858l8.842 4.567-4.468 4.969c-5.648 6.282-6.97 10.278-6.382 19.288.677 10.367 5.99 19.489 14.364 24.664l3.444 2.129-2.668 3.16c-5.988 7.093-8.099 17.669-4.978 24.942 1.945 4.534 7.178 9.18 13.692 12.156l5.574 2.547-4.884 5.067c-3.784 3.925-4.814 5.674-4.574 7.758.24 2.073.923 2.761 2.979 2.998 2.023.234 4.211-1 9.056-5.111 8.641-7.33 9.733-7.803 19.007-8.231 9.751-.449 11.99.41 20.723 7.957 4.382 3.787 7.316 5.577 9.143 5.577 5.742 0 4.168-5.736-3.52-12.822-2.517-2.321-4.577-4.426-4.577-4.678 0-.253 1.82-1.388 4.045-2.523 10.054-5.129 15.859-13.923 14.559-22.054-.789-4.929-3.61-10.716-6.498-13.328-1.158-1.048-2.106-2.217-2.106-2.598 0-.381 1.854-1.529 4.12-2.551 5.469-2.466 12.572-9.494 14.884-14.726 4.716-10.674 3.197-21.802-4.108-30.101-2.278-2.588-3.974-4.836-3.769-4.995.205-.159 3.894-2.164 8.197-4.455 15.546-8.278 26.019-18.454 32.078-31.169 2.863-6.008 3.098-7.307 3.098-17.155v-10.656l-5.275-10.344C205.922 96.521 201.197 89.827 197 87.857c-5.058-2.374-21.485-3.229-23.492-1.222-1.097 1.097-1.236 2.004-.514 3.354.704 1.315.631 2.018-.252 2.43-.987.462-.985.701.008 1.164 1.421.663 1.726 2.549.35 2.167-.495-.138-1.031.2-1.191.75-.429 1.475 5.458 5.132 11.397 7.081 6.522 2.141 11.375 5.562 15.347 10.82 6.265 8.293 6.864 17.096 1.838 27.029-3.141 6.209-12.585 15.82-19.491 19.836-6.439 3.744-21.949 8.711-29.366 9.404l-6.338.592-1.081 14.103c-.594 7.756-.886 14.297-.648 14.536.238.238.433-.818.433-2.346 0-2.658.161-2.75 3.75-2.129 10.534 1.82 19.428 9.746 17.876 15.929-1.818 7.244-18.139 18.645-26.691 18.645-3.175 0-3.848-.368-4.115-2.25-.28-1.97-.992-2.288-5.725-2.558-3.605-.205-5.67.12-6.198.975-1.355 2.193-11.676-1.989-16.632-6.738-3.726-3.57-4.265-4.63-4.265-8.39 0-2.584.814-5.62 2.038-7.6 2.131-3.449 9.235-7.551 13.501-7.797 1.457-.084 2.459-.753 2.459-1.642-.001-1.195 1.469-1.5 7.233-1.5 6.093 0 7.287-.276 7.575-1.75.3-1.541-.553-1.75-7.149-1.75-5.057 0-7.654.406-7.995 1.25-.277.688-.54-1.338-.583-4.5L119 180h8.073c7.15 0 8.035-.2 7.739-1.75-.277-1.454-1.631-1.799-7.992-2.041-6.663-.252-7.718-.058-8.123 1.5-.256.985-.465-.234-.465-2.709s.209-3.694.465-2.709c.405 1.558 1.461 1.752 8.134 1.5 6.905-.262 7.669-.49 7.669-2.291 0-1.833-.667-2-8-2-6.142 0-8.158-.348-8.68-1.5-.49-1.082-.699-.874-.75.75-.087 2.786-1.173 2.811-11.796.264-16.496-3.955-29.953-12.289-37.082-22.964-4.65-6.964-6.188-11.468-6.164-18.05.036-9.977 8.325-20.287 19.234-23.926C89.033 101.482 94 98.512 94 96.456c0-.866-.45-1.296-1-.956-.55.34-1 .179-1-.358 0-.536.563-1.238 1.25-1.559.865-.403.91-.748.145-1.118-.607-.294-.883-1.692-.613-3.106.543-2.838-1.068-4.413-4.282-4.189-1.1.077-5.6.429-10 .783m-1.376 2.791l-6.377.358 2.155 2.294c2.423 2.579 1.98 5.189-1.042 6.149-2.864.908-5.108-1.373-4.399-4.471l.59-2.574-1.937 2.458c-3.923 4.979-14.058 23.68-15.22 28.084-1.128 4.279-1.038 4.783 1.549 8.692 3.361 5.079 2.452 8.121-1.1 3.682L49.01 130.5l-.005 2.772c-.003 1.849 1.327 4.218 3.995 7.112 3.811 4.134 4.994 6.616 3.155 6.616-.465 0-1.662-.903-2.661-2.006-2.451-2.709-2.983-1.84-1.101 1.798.847 1.638 3.58 4.174 6.073 5.635C60.96 153.889 63 155.74 63 156.542c0 1.902-1.001 1.84-4.027-.247l-2.473-1.706 2.544 3.347c1.816 2.388 4.083 3.81 7.921 4.967 6.23 1.878 8.355 4.664 2.951 3.871l-3.338-.49 3.423 2.858c2.968 2.478 4.26 2.858 9.711 2.858 4.923 0 6.288.326 6.288 1.5 0 1.059-1.103 1.513-3.75 1.544l-3.75.044 3.779 1.995c3.157 1.666 4.392 1.825 7.5.961 5.056-1.404 9.486-1.339 8.996.132-.216.647-2.166 1.697-4.334 2.333l-3.941 1.157 4.358 1.358c4.064 1.266 4.659 1.198 8.79-.993 3.019-1.602 4.758-2.025 5.454-1.329.697.697.002 1.669-2.179 3.05l-3.201 2.027 4.889 1.058c4.509.976 5.07.879 7.222-1.245 2.027-2.001 2.243-2.902 1.649-6.865-.893-5.953-4.043-7.116-8.69-3.206-3.64 3.064-6.385 1.896-3.371-1.434 1.725-1.906 1.678-1.978-1.702-2.612-2.33-.437-4.489-.128-6.548.936-3.802 1.967-5.171 2.008-5.171.156 0-.788.983-1.744 2.184-2.125 2.125-.675 2.109-.733-.621-2.163-1.875-.982-4.174-1.264-6.934-.851-5.543.832-6.129.771-6.129-.633 0-.663 1.125-1.481 2.5-1.818l2.5-.613-3.2-1.682c-1.761-.925-5.286-1.682-7.834-1.682-3.259 0-4.511-.371-4.221-1.25.226-.687 1.437-1.4 2.69-1.584l2.279-.333-2.794-2.917c-2.13-2.223-3.7-2.916-6.607-2.916-2.723 0-3.813-.429-3.813-1.5 0-.941.95-1.5 2.551-1.5h2.551l-2.625-3.441c-1.568-2.056-3.67-3.565-5.223-3.75-3.578-.425-4.198-2.809-.73-2.809 2.042 0 2.544-.381 2.083-1.582-.334-.87-.61-2.107-.613-2.75-.004-.642-1.383-1.951-3.065-2.909-3.227-1.836-3.11-4.269.155-3.232 1.426.452 1.916.125 1.916-1.281 0-1.04.752-4.107 1.671-6.818C62.814 114.11 72.55 104.222 79 101.813l4.5-1.68-4.75.569c-3.005.361-4.75.185-4.75-.477 0-1.736 6.05-6.272 11.693-8.768C88.612 90.166 91 88.86 91 88.555c0-.545-1.076-.531-13.876.189M175 88.343c0 .346 2.813 2.034 6.25 3.751 6.409 3.203 10.75 6.518 10.75 8.209 0 .566-2.136.694-5.25.314l-5.25-.641 5.91 2.465c9.489 3.959 17.362 13.343 19.112 22.779.491 2.651 1.161 3.656 2.334 3.5 2.61-.349 2.652 1.662.062 2.982-4.192 2.137-5.195 7.298-1.418 7.298 1.375 0 2.5.464 2.5 1.031 0 1.065-.729 1.408-5 2.358-1.375.305-3.251 1.891-4.17 3.524-1.613 2.87-1.599 2.979.422 3.278 3.957.585 3.179 2.809-.982 2.809-3.023 0-4.539.672-6.77 3-2.755 2.876-2.784 3-.687 3 1.277 0 2.187.624 2.187 1.5 0 1.086-1.117 1.5-4.05 1.5-2.227 0-5.489.757-7.25 1.682l-3.2 1.682 2.5.613c1.375.337 2.5 1.155 2.5 1.818 0 1.486-.504 1.549-5.572.693-2.457-.415-5.187-.209-6.959.525l-2.917 1.208 2.224 1.804c3.239 2.626 1.364 3.567-3.099 1.555-2.702-1.218-4.942-1.527-7.541-1.04-3.336.626-3.524.822-1.917 1.996.98.717 1.781 1.765 1.781 2.33 0 1.464 9.181 6.154 11.803 6.029 1.555-.074 1.126-.439-1.471-1.25-4.22-1.317-5.269-2.13-4.453-3.449.35-.567 2.964-.387 6.605.454 5.606 1.295 6.288 1.254 9.771-.585l3.745-1.977-3.75-.044c-2.647-.031-3.75-.485-3.75-1.544 0-1.17 1.373-1.506 6.25-1.527 5.365-.023 6.732-.427 9.653-2.849l3.403-2.823-3.28.482c-5.327.782-3.194-2.011 2.95-3.863 3.494-1.053 6.014-2.559 7.349-4.392l2.032-2.79-2.286 1.224c-1.557.833-2.612.897-3.308.201-.696-.696.737-2.148 4.495-4.552 3.795-2.427 5.869-4.537 6.643-6.757l1.125-3.227L212.5 145c-1.843 1.732-2.825 2.075-3.631 1.269-.805-.805.145-2.439 3.514-6.04 2.84-3.037 4.615-5.858 4.612-7.333-.005-2.38-.02-2.377-2.338.52-3.447 4.307-4.296 1.53-1.166-3.811 1.932-3.297 2.418-5.147 1.907-7.264-1.382-5.726-13.021-26.984-16.171-29.536-1.147-.929-1.398-.951-.873-.076C199.439 94.535 197.234 98 195 98c-1.061 0-2.395-.87-2.965-1.934-1.385-2.588-1.364-2.682 1.154-5.027L195.377 89h-4.042c-2.223 0-6.808-.289-10.188-.642-3.381-.354-6.147-.36-6.147-.015M149.195 123.5c.02 1.65.244 2.204.498 1.231.254-.973.237-2.323-.037-3-.274-.677-.481.119-.461 1.769m-38.196 17.882c.002 1.577 4.135 7.618 5.211 7.618.676 0 .817 1.739.397 4.902l-.65 4.902 9.272-.152 9.271-.152.305-4.75.305-4.75h5.861c3.754 0 6.044.45 6.367 1.25.277.688.54.316.583-.826.043-1.141 1.204-3.132 2.579-4.424 1.375-1.292 2.5-2.703 2.5-3.136 0-.433-9.45-.917-21.001-1.075-11.679-.161-21 .102-21 .593m35.196 19.118c.02 1.65.244 2.204.498 1.231.254-.973.237-2.323-.037-3-.274-.677-.481.119-.461 1.769M118 164c0 1.843.667 2 8.5 2s8.5-.157 8.5-2-.667-2-8.5-2-8.5.157-8.5 2m33 9.887c0 .487 1.339 1.083 2.976 1.323 2.382.349 2.756.172 1.877-.887-1.23-1.483-4.853-1.809-4.853-.436m-5.451 10.408c-.435 3.738-.542 7.046-.236 7.351.306.306 2.09-.614 3.966-2.045 1.875-1.431 3.705-2.601 4.065-2.601 1.521 0 .487 3.005-1.517 4.408-3.763 2.637.625 3.257 5.676.803 2.359-1.147 4.562-1.813 4.894-1.481 1.186 1.186.565 2.33-1.866 3.438-3.819 1.74-2.017 2.795 3.632 2.126 4.122-.488 5.018-.333 4.644.801-.255.773-1.467 1.552-2.693 1.732-3.896.572-1.641 2.661 3.214 2.978 3.267.213 4.672.739 4.672 1.75 0 .939-1.051 1.445-3 1.445-4.613 0-4.042 3.428 1 6 2.2 1.122 4 2.407 4 2.854 0 1.788-1.391 1.995-4.077.606-3.606-1.864-3.639-1.86-4.987.66-.931 1.739-.749 2.641 1.01 5.021 2.949 3.989 1.572 5.729-1.901 2.402-3.386-3.244-4.761-2.067-5.226 4.477-.369 5.177-2.17 6.023-2.632 1.236l-.313-3.243-3.929 2.243c-4.226 2.413-4.994 3.731-2.195 3.766.963.012 3.676.896 6.03 1.965l4.28 1.942 2.169-4.464c1.193-2.456 2.503-4.465 2.911-4.465 1.516 0 1.917 2.025.811 4.092-1.14 2.13-1.136 2.13 1.909.332 2.734-1.615 3.082-2.374 3.346-7.284.366-6.819 2.783-8.512 2.816-1.973l.022 4.333 1.815-2.359c1.762-2.292 1.748-2.539-.492-8.71-1.529-4.213-1.95-6.571-1.249-7.004 1.441-.89 2.413.362 3.91 5.038 1.22 3.813 1.303 3.872 2.167 1.536.495-1.336.765-4.231.602-6.433-.264-3.562-.656-4.106-3.547-4.931-4.285-1.221-4.507-4.138-.25-3.287 1.65.33 3 .247 3-.184 0-2.156-2.957-4.267-6.921-4.942-5.606-.954-6.722-3.224-1.586-3.224h3.66l-3.039-2.557c-2.742-2.307-3.41-2.455-6.827-1.506-4.905 1.362-5.287 1.337-5.287-.354 0-.779 1.236-1.828 2.747-2.332l2.748-.916-2.319-1.241c-1.727-.924-3.102-.967-5.396-.167-4.289 1.495-6.78 1.338-6.78-.427 0-.884.923-1.506 2.25-1.515 1.819-.013 1.963-.201.75-.985-2.333-1.508-6-1.202-6 .5 0 2.096-2.765 1.884-3.256-.25-.222-.963-.759 1.308-1.195 5.045M120 184.5c0 1.2 1.5 1.5 7.5 1.5s7.5-.3 7.5-1.5-1.5-1.5-7.5-1.5-7.5.3-7.5 1.5m-28.139 4.467l-2.361 1.966 3.25.034c1.787.018 3.25.497 3.25 1.064 0 1.171-.999 1.565-6.097 2.408-2.514.415-3.933 1.332-4.714 3.045-1.071 2.352-.996 2.427 1.847 1.859 4.199-.84 3.826 1.399-.536 3.221-3.714 1.552-4.11 3.064-2.607 9.936l.656 3 1.777-4.399c1.312-3.248 2.07-4.105 2.897-3.278.828.828.635 2.552-.738 6.59-1.647 4.846-1.697 5.79-.439 8.278l1.42 2.809.328-4.313c.478-6.306 2.639-4.79 3.005 2.109.264 4.989.651 5.888 3.366 7.821 3.029 2.158 3.053 2.159 1.951.099-1.42-2.652-1.434-5.216-.03-5.216.597 0 2.025 2.222 3.172 4.938 1.815 4.295 2.733 5.207 7.048 7 2.728 1.134 5.288 2.062 5.688 2.062.401 0 .251-1.786-.331-3.968-.583-2.183-.775-4.253-.428-4.601 1.265-1.264 2.59.669 3.738 5.456 1.029 4.291 1.549 4.967 4.225 5.503 5.605 1.121 5.945.893 3.839-2.569-1.853-3.047-1.88-4.821-.073-4.821.465 0 2.002 1.973 3.416 4.385 1.648 2.813 3.518 4.624 5.213 5.049 3.291.826 3.868.297 2.488-2.283-.595-1.111-1.081-2.724-1.081-3.585 0-3.039 2.137-1.511 4.103 2.934 2.441 5.517 5.834 6.432 5.092 1.373-.62-4.219 1.903-3.434 3.038.945.981 3.786 3.767 4.334 3.767.741 0-2.774 1.853-4.415 2.961-2.622.405.656.518 2.336.251 3.734-.644 3.372 1.716 4.877 3.547 2.263 1.779-2.541 3.648-2.497 2.858.066l-1.233 3.998c-.549 1.781-.277 1.931 2.5 1.375 2.453-.49 3.116-.281 3.116.983 0 .883-1.082 1.878-2.406 2.21-3.039.763-4.282 4.434-1.5 4.434 1.048 0 1.906.675 1.906 1.5 0 .962-.986 1.511-2.75 1.532-3.207.037-6.92 2.436-5.31 3.431 2.261 1.398.966 2.75-2.19 2.286-1.844-.27-4.658.194-6.506 1.075l-3.255 1.552 3.12 1.312c4.47 1.88 6.891 1.674 6.891-.585 0-1.505.673-1.867 3.25-1.75 2.76.125 3.3-.23 3.585-2.353.487-3.643 2.039-4.853 3.569-2.783 1.167 1.579 1.428 1.499 3.25-1 3.198-4.385 3.585-6.217 1.315-6.217-1.084 0-1.969-.675-1.969-1.5 0-.833.889-1.5 2-1.5 1.554 0 2-.667 2-2.987 0-2.479-.606-3.24-3.572-4.479-3.419-1.428-3.923-3.534-.846-3.534 1.24 0 1.214-.382-.17-2.494-1.427-2.178-2.127-2.415-5.523-1.872-4.121.659-5.322-.732-2.161-2.502 1.541-.862 1.446-1.096-.873-2.152-1.97-.898-3.124-.906-4.749-.037-2.522 1.35-4.255.61-3.455-1.475.379-.988-.088-1.468-1.427-1.468-1.15 0-2.212.845-2.514 2-.743 2.844-2.71 2.481-2.71-.5 0-2-.5-2.5-2.5-2.5-1.833 0-2.5.533-2.5 2 0 1.111-.667 2-1.5 2-.825 0-1.5-.852-1.5-1.893 0-1.87-1.824-3.107-4.582-3.107-.78 0-1.418.938-1.418 2.083 0 2.728-2.398 1.953-2.82-.911-.331-2.252-3.519-3.05-4.68-1.172-.92 1.488-2.5 1.209-2.5-.441 0-2.35-1.991-2.877-4-1.059-2.356 2.133-4.412 1.139-3.021-1.461.741-1.384.598-1.987-.579-2.439-2.338-.897-2.4-.836-2.4 2.341 0 1.618-.419 3.2-.931 3.516-1.457.901-2.506-1.607-2.193-5.243.157-1.823-.27-3.984-.95-4.803-1.072-1.292-1.596-1.143-3.971 1.132-3.521 3.373-4.871 1.552-1.92-2.592 1.476-2.073 1.964-3.818 1.54-5.507-.607-2.421-.684-2.439-3.712-.873-4.599 2.378-6.17.179-1.747-2.445 7.231-4.29 7.643-5.884 1.634-6.319-6.052-.437-5.261-2.215 1.25-2.807 5.587-.508 7.144-2.24 2.531-2.816-1.493-.187-2.531-.958-2.531-1.879 0-1.294.848-1.45 4.926-.909 5.696.755 7.419-.596 3.061-2.401-1.643-.681-2.987-1.606-2.987-2.057 0-1.895 2.181-1.886 5.926.024 4.519 2.306 7.439 2.642 6.83.788-.345-1.052-15.828-5.616-19.395-5.718-.627-.017-2.202.853-3.5 1.935M121 197c0 1.944.474 2.071 6.75 1.796 5.202-.228 6.75-.64 6.75-1.796 0-1.156-1.548-1.568-6.75-1.796-6.276-.275-6.75-.148-6.75 1.796m-.601 6.547c-.352 1.4-.36 2.825-.019 3.166.341.341.62-.13.62-1.046 0-1.397 1.133-1.667 7-1.667 5.556 0 7-.31 7-1.5s-1.442-1.5-6.981-1.5c-6.646 0-7.012.122-7.62 2.547m1.601 4.405c0 1.856.616 2.048 6.573 2.048 5.721 0 6.53-.227 6.24-1.75-.267-1.404-1.567-1.809-6.573-2.048-5.719-.273-6.24-.126-6.24 1.75m20.195 2.548c.02 1.65.244 2.204.498 1.231.254-.973.237-2.323-.037-3-.274-.677-.481.119-.461 1.769m-20.796 5.047c-.352 1.4-.36 2.825-.019 3.166.341.341.619-.017.618-.796-.001-1.071 1.52-1.417 6.232-1.417 5.139 0 6.293-.307 6.575-1.75.297-1.523-.507-1.75-6.213-1.75-6.189 0-6.589.142-7.193 2.547M123 220.5c0 1.167 1.333 1.5 6 1.5s6-.333 6-1.5-1.333-1.5-6-1.5-6 .333-6 1.5m18.195 2c.02 1.65.244 2.204.498 1.231.254-.973.237-2.323-.037-3-.274-.677-.481.119-.461 1.769m-40.944 19.223c-1.817.226-3.682 1.214-4.232 2.242-.827 1.545-.668 1.756.998 1.32 2.633-.688 2.682 2.271.061 3.673C91.854 251.754 90.3 256 94.5 256c1.556 0 2.5.567 2.5 1.5 0 .928-.941 1.5-2.468 1.5-4.007 0-1.781 4.109 2.944 5.435 4.237 1.189 4.831 2.784 1.343 3.608-1.609.38-1.919.777-1.035 1.324.696.43 2.604.487 4.24.128 2.267-.498 2.976-.297 2.976.842 0 .823-.562 1.723-1.25 2.001-.831.335-.73.531.3.583.853.043 2.09-.461 2.75-1.121.933-.933 1.476-.924 2.442.042.988.988.967 1.411-.107 2.075-2.651 1.638.926 2.326 5.473 1.053 4.941-1.384 6.934-.571 3.949 1.612-1.811 1.324-1.711 1.416 1.502 1.383 1.892-.02 4.566-.679 5.941-1.465 3.309-1.892 5.364-1.892 4.638 0-.68 1.772 2.978 2.074 5.362.443 1.333-.912 1.333-1.009 0-.866-3.159.337-4.2-.114-3.638-1.577.72-1.878-.485-1.893-4.872-.06-3.331 1.392-5.314.702-4.017-1.397.365-.591-1.397-.721-4.609-.341-4.472.53-5.115.396-4.595-.96.747-1.946-1.016-2.704-4.668-2.006-2.301.44-2.719.21-2.461-1.353.475-2.885-.96-4.383-4.199-4.383-1.948 0-2.941-.507-2.941-1.5 0-.825.675-1.5 1.5-1.5 2.774 0 1.396-2.966-2.278-4.9-2.715-1.43-1.886-3.507 1.089-2.729 1.147.3 2.686.047 3.42-.563 1.092-.906.951-1.517-.773-3.353-2.629-2.798-.98-4.17 2.373-1.974 2.261 1.482 5.669 1.202 5.669-.466 0-.423-.675-1.33-1.5-2.015s-1.5-1.865-1.5-2.622c0-1.372-1.173-1.471-7.749-.655M113 244.5c.685.825 2.652 1.466 4.372 1.424l3.128-.076-3.5-1.348c-4.658-1.794-5.489-1.794-4 0m16.75 3.262c-3.315.243-4.75.784-4.75 1.793 0 1.046 1.242 1.445 4.5 1.445 3.333 0 4.5.389 4.5 1.5 0 1.107-1.158 1.5-4.421 1.5-4.129 0-4.465-.204-5.101-3.098-.671-3.055-.745-3.089-5.329-2.418-7.37 1.08-12.967 3.943-13.742 7.03-1.274 5.076 5.813 11.51 14.803 13.438 6.099 1.308 7.484.478 6.053-3.626l-.985-2.826 4.361.351c4.342.349 4.361.367 4.361 4.25 0 3.596.216 3.899 2.778 3.899 4.734 0 16.937-6.484 19.205-10.205 2.57-4.214 2.551-4.415-.749-7.714-2.1-2.101-4.445-3.059-9.75-3.982-9.585-1.669-10.332-1.733-15.734-1.337m-3.995 10.738c.412 2.155 1.013 2.5 4.362 2.5 3.475 0 3.883-.263 3.883-2.5 0-2.285-.376-2.5-4.361-2.5-4.113 0-4.334.142-3.884 2.5m13.961 18.521c.413 1.58.827 1.773 1.895.887 1.548-1.285.947-2.908-1.076-2.908-.86 0-1.156.731-.819 2.021m5.784 2.033c-1.681.768-1.522.876 1 .68 2.326-.181 2.969.161 2.86 1.522-.134 1.685 10.767 11.744 12.727 11.744 1.609 0 .984-2.041-1.706-5.567-1.939-2.542-3.383-3.433-5.567-3.433-2.404 0-2.841-.339-2.367-1.833.416-1.312-.147-2.165-1.98-3-1.408-.642-2.652-1.135-2.764-1.097-.112.039-1.103.482-2.203.984m-31 2.946c.537 1.693.18 2-2.329 2-2.141 0-3.826.982-6.067 3.535-4.533 5.162-4.054 7.136.923 3.816 4.75-3.169 9.812-8.607 9.287-9.976-.836-2.177-2.519-1.597-1.814.625m13.255 4.5c.378 1.978 1.08 2.5 3.362 2.5 2.409 0 2.883-.411 2.883-2.5 0-2.171-.443-2.5-3.361-2.5-3.047 0-3.317.234-2.884 2.5m1.088 9c.317 3.984.634 4.5 2.758 4.5 2.177 0 2.399-.417 2.399-4.5 0-4.245-.156-4.5-2.757-4.5-2.654 0-2.744.168-2.4 4.5" fill="undefined" fill-rule="evenodd"/></svg>